  0
SECTION
  2
HEADER
  9
$ACADVER
  1
AC1014
  9
$HANDSEED
  5
FFFF
  9
$MEASUREMENT
 70
     1
  0
ENDSEC
  0
SECTION
  2
TABLES
  0
TABLE
  2
VPORT
  5
8
330
0
100
AcDbSymbolTable
 70
     4
  0
VPORT
  5
2E
330
8
100
AcDbSymbolTableRecord
100
AcDbViewportTableRecord
  2
*ACTIVE
 70
     0
 10
0.0
 20
0.0
 11
1.0
 21
1.0
 12
210.0
 22
148.5
 13
0.0
 23
0.0
 14
10.0
 24
10.0
 15
10.0
 25
10.0
 16
0.0
 26
0.0
 36
1.0
 17
0.0
 27
0.0
 37
0.0
 40
341.0
 41
1.24
 42
50.0
 43
0.0
 44
0.0
 50
0.0
 51
0.0
 71
     0
 72
   100
 73
     1
 74
     3
 75
     0
 76
     0
 77
     0
 78
     0
  0
ENDTAB
  0
TABLE
  2
LTYPE
  5
5
330
0
100
AcDbSymbolTable
 70
     1
  0
LTYPE
  5
14
330
5
100
AcDbSymbolTableRecord
100
AcDbLinetypeTableRecord
  2
BYBLOCK
 70
     0
  3

 72
    65
 73
     0
 40
0.0
  0
LTYPE
  5
15
330
5
100
AcDbSymbolTableRecord
100
AcDbLinetypeTableRecord
  2
BYLAYER
 70
     0
  3

 72
    65
 73
     0
 40
0.0
  0
LTYPE
  5
16
330
5
100
AcDbSymbolTableRecord
100
AcDbLinetypeTableRecord
  2
CONTINUOUS
 70
     0
  3
Solid line
 72
    65
 73
     0
 40
0.0
  0
ENDTAB
  0
TABLE
  2
LAYER
  5
2
100
AcDbSymbolTable
 70
2
  0
LAYER
  5
50
100
AcDbSymbolTableRecord
100
AcDbLayerTableRecord
  2
0
 70
0
  6
CONTINUOUS
  0
LAYER
  5
51
100
AcDbSymbolTableRecord
100
AcDbLayerTableRecord
  2
cutter
 70
0
  6
CONTINUOUS
  0
ENDTAB
  0
TABLE
  2
STYLE
  5
3
330
0
100
AcDbSymbolTable
 70
     1
  0
STYLE
  5
11
330
3
100
AcDbSymbolTableRecord
100
AcDbTextStyleTableRecord
  2
STANDARD
 70
     0
 40
0.0
 41
1.0
 50
0.0
 71
     0
 42
2.5
  3
txt
  4

  0
ENDTAB
  0
TABLE
  2
VIEW
  5
6
330
0
100
AcDbSymbolTable
 70
     0
  0
ENDTAB
  0
TABLE
  2
UCS
  5
7
330
0
100
AcDbSymbolTable
 70
     0
  0
ENDTAB
  0
TABLE
  2
APPID
  5
9
330
0
100
AcDbSymbolTable
 70
     2
  0
APPID
  5
12
330
9
100
AcDbSymbolTableRecord
100
AcDbRegAppTableRecord
  2
ACAD
 70
     0
  0
ENDTAB
  0
TABLE
  2
DIMSTYLE
  5
A
330
0
100
AcDbSymbolTable
 70
     1
  0
DIMSTYLE
105
27
330
A
100
AcDbSymbolTableRecord
100
AcDbDimStyleTableRecord
  2
ISO-25
 70
     0
  3

  4

  5

  6

  7

 40
1.0
 41
2.5
 42
0.625
 43
3.75
 44
1.25
 45
0.0
 46
0.0
 47
0.0
 48
0.0
140
2.5
141
2.5
142
0.0
143
0.03937007874016
144
1.0
145
0.0
146
1.0
147
0.625
 71
     0
 72
     0
 73
     0
 74
     0
 75
     0
 76
     0
 77
     1
 78
     8
170
     0
171
     3
172
     1
173
     0
174
     0
175
     0
176
     0
177
     0
178
     0
270
     2
271
     2
272
     2
273
     2
274
     3
340
11
275
     0
280
     0
281
     0
282
     0
283
     0
284
     8
285
     0
286
     0
287
     3
288
     0
  0
ENDTAB
  0
TABLE
  2
BLOCK_RECORD
  5
1
330
0
100
AcDbSymbolTable
 70
     1
  0
BLOCK_RECORD
  5
1F
330
1
100
AcDbSymbolTableRecord
100
AcDbBlockTableRecord
  2
*MODEL_SPACE
  0
BLOCK_RECORD
  5
1B
330
1
100
AcDbSymbolTableRecord
100
AcDbBlockTableRecord
  2
*PAPER_SPACE
  0
ENDTAB
  0
ENDSEC
  0
SECTION
  2
BLOCKS
  0
BLOCK
  5
20
330
1F
100
AcDbEntity
  8
0
100
AcDbBlockBegin
  2
*MODEL_SPACE
 70
     0
 10
0.0
 20
0.0
 30
0.0
  3
*MODEL_SPACE
  1

  0
ENDBLK
  5
21
330
1F
100
AcDbEntity
  8
0
100
AcDbBlockEnd
  0
BLOCK
  5
1C
330
1B
100
AcDbEntity
 67
     1
  8
0
100
AcDbBlockBegin
  2
*PAPER_SPACE
  1

  0
ENDBLK
  5
1D
330
1B
100
AcDbEntity
 67
     1
  8
0
100
AcDbBlockEnd
  0
ENDSEC
  0
SECTION
  2
ENTITIES
  0
LWPOLYLINE
  5
100
100
AcDbEntity
  8
cutter
 62
1
100
AcDbPolyline
 90
769
 70
0
 10
-34.246701
 20
-18.312524
 30
0.0
 10
-34.122476
 20
-18.021468
 30
0.0
 10
-34.003700
 20
-17.733009
 30
0.0
 10
-33.890362
 20
-17.447174
 30
0.0
 10
-33.782446
 20
-17.163964
 30
0.0
 10
-33.679940
 20
-16.883379
 30
0.0
 10
-33.582827
 20
-16.605390
 30
0.0
 10
-33.491099
 20
-16.330026
 30
0.0
 10
-33.404737
 20
-16.057286
 30
0.0
 10
-33.323730
 20
-15.787143
 30
0.0
 10
-33.248064
 20
-15.519624
 30
0.0
 10
-33.177723
 20
-15.254702
 30
0.0
 10
-33.112699
 20
-14.992433
 30
0.0
 10
-33.052972
 20
-14.732761
 30
0.0
 10
-32.998534
 20
-14.475684
 30
0.0
 10
-32.949368
 20
-14.221261
 30
0.0
 10
-32.905460
 20
-13.969434
 30
0.0
 10
-32.866798
 20
-13.720204
 30
0.0
 10
-32.833369
 20
-13.473626
 30
0.0
 10
-32.805147
 20
-13.229645
 30
0.0
 10
-32.782146
 20
-12.988260
 30
0.0
 10
-32.764338
 20
-12.749529
 30
0.0
 10
-32.751694
 20
-12.513393
 30
0.0
 10
-32.744215
 20
-12.279883
 30
0.0
 10
-32.741957
 20
-12.048968
 30
0.0
 10
-32.744780
 20
-11.820679
 30
0.0
 10
-32.752710
 20
-11.595014
 30
0.0
 10
-32.765749
 20
-11.371946
 30
0.0
 10
-32.783896
 20
-11.151502
 30
0.0
 10
-32.807123
 20
-10.933683
 30
0.0
 10
-32.835413
 20
-10.718460
 30
0.0
 10
-32.868760
 20
-10.505890
 30
0.0
 10
-32.907145
 20
-10.295889
 30
0.0
 10
-32.950559
 20
-10.088540
 30
0.0
 10
-32.998989
 20
-9.883788
 30
0.0
 10
-33.052416
 20
-9.681660
 30
0.0
 10
-33.110833
 20
-9.482129
 30
0.0
 10
-33.174220
 20
-9.285223
 30
0.0
 10
-33.242569
 20
-9.090941
 30
0.0
 10
-33.315862
 20
-8.899284
 30
0.0
 10
-33.394088
 20
-8.710223
 30
0.0
 10
-33.477234
 20
-8.523787
 30
0.0
 10
-33.565282
 20
-8.339948
 30
0.0
 10
-33.658223
 20
-8.158761
 30
0.0
 10
-33.756041
 20
-7.980171
 30
0.0
 10
-33.858725
 20
-7.804177
 30
0.0
 10
-33.966257
 20
-7.630808
 30
0.0
 10
-34.078627
 20
-7.460063
 30
0.0
 10
-34.195820
 20
-7.291944
 30
0.0
 10
-34.317824
 20
-7.126420
 30
0.0
 10
-34.444621
 20
-6.963522
 30
0.0
 10
-34.576202
 20
-6.803248
 30
0.0
 10
-34.712552
 20
-6.645570
 30
0.0
 10
-34.853657
 20
-6.490517
 30
0.0
 10
-34.999504
 20
-6.338089
 30
0.0
 10
-35.150078
 20
-6.188257
 30
0.0
 10
-35.305368
 20
-6.041050
 30
0.0
 10
-35.465357
 20
-5.896468
 30
0.0
 10
-35.630033
 20
-5.754482
 30
0.0
 10
-35.799384
 20
-5.615120
 30
0.0
 10
-35.973393
 20
-5.478384
 30
0.0
 10
-36.152049
 20
-5.344243
 30
0.0
 10
-36.335335
 20
-5.212728
 30
0.0
 10
-36.523244
 20
-5.083837
 30
0.0
 10
-36.715756
 20
-4.957542
 30
0.0
 10
-36.527192
 20
-4.885209
 30
0.0
 10
-36.340257
 20
-4.815500
 30
0.0
 10
-36.154936
 20
-4.748416
 30
0.0
 10
-35.971212
 20
-4.683900
 30
0.0
 10
-35.789071
 20
-4.622037
 30
0.0
 10
-35.608497
 20
-4.562714
 30
0.0
 10
-35.429475
 20
-4.506015
 30
0.0
 10
-35.251988
 20
-4.451885
 30
0.0
 10
-35.076020
 20
-4.400295
 30
0.0
 10
-34.901561
 20
-4.351301
 30
0.0
 10
-34.728590
 20
-4.304847
 30
0.0
 10
-34.557092
 20
-4.260933
 30
0.0
 10
-34.387053
 20
-4.219560
 30
0.0
 10
-34.218459
 20
-4.180726
 30
0.0
 10
-34.051294
 20
-4.144404
 30
0.0
 10
-33.885542
 20
-4.110594
 30
0.0
 10
-33.721184
 20
-4.079295
 30
0.0
 10
-33.558212
 20
-4.050480
 30
0.0
 10
-33.396603
 20
-4.024234
 30
0.0
 10
-33.236346
 20
-4.000527
 30
0.0
 10
-33.077427
 20
-3.979078
 30
0.0
 10
-32.919825
 20
-3.960169
 30
0.0
 10
-32.763531
 20
-3.943800
 30
0.0
 10
-32.608526
 20
-3.929971
 30
0.0
 10
-32.454794
 20
-3.918400
 30
0.0
 10
-32.302320
 20
-3.909369
 30
0.0
 10
-32.151089
 20
-3.902596
 30
0.0
 10
-32.001087
 20
-3.898362
 30
0.0
 10
-31.852297
 20
-3.895540
 30
0.0
 10
-31.704703
 20
-3.895540
 30
0.0
 10
-31.558292
 20
-3.898645
 30
0.0
 10
-31.413049
 20
-3.904007
 30
0.0
 10
-31.268955
 20
-3.911627
 30
0.0
 10
-31.125995
 20
-3.921787
 30
0.0
 10
-30.984156
 20
-3.934205
 30
0.0
 10
-30.843420
 20
-3.949162
 30
0.0
 10
-30.703777
 20
-3.966378
 30
0.0
 10
-30.565203
 20
-3.985851
 30
0.0
 10
-30.427690
 20
-4.007865
 30
0.0
 10
-30.291222
 20
-4.032136
 30
0.0
 10
-30.155777
 20
-4.058665
 30
0.0
 10
-30.021347
 20
-4.087564
 30
0.0
 10
-29.887912
 20
-4.118722
 30
0.0
 10
-29.755459
 20
-4.152221
 30
0.0
 10
-29.623972
 20
-4.187979
 30
0.0
 10
-29.493436
 20
-4.226022
 30
0.0
 10
-29.363834
 20
-4.266352
 30
0.0
 10
-29.235149
 20
-4.308968
 30
0.0
 10
-29.107373
 20
-4.353813
 30
0.0
 10
-28.980483
 20
-4.400916
 30
0.0
 10
-28.854468
 20
-4.450276
 30
0.0
 10
-28.729308
 20
-4.501866
 30
0.0
 10
-28.604992
 20
-4.555686
 30
0.0
 10
-28.481505
 20
-4.611736
 30
0.0
 10
-28.358829
 20
-4.670014
 30
0.0
 10
-28.236949
 20
-4.730466
 30
0.0
 10
-28.115847
 20
-4.793120
 30
0.0
 10
-27.995513
 20
-4.857974
 30
0.0
 10
-27.875930
 20
-4.925030
 30
0.0
 10
-27.757080
 20
-4.994231
 30
0.0
 10
-27.638950
 20
-5.065634
 30
0.0
 10
-27.521523
 20
-5.139152
 30
0.0
 10
-27.404784
 20
-5.214844
 30
0.0
 10
-27.288720
 20
-5.292710
 30
0.0
 10
-26.899941
 20
-4.875754
 30
0.0
 10
-26.514260
 20
-4.465178
 30
0.0
 10
-26.131490
 20
-4.060838
 30
0.0
 10
-25.751441
 20
-3.662763
 30
0.0
 10
-25.373925
 20
-3.270841
 30
0.0
 10
-24.998755
 20
-2.884987
 30
0.0
 10
-24.625741
 20
-2.505201
 30
0.0
 10
-24.254697
 20
-2.131397
 30
0.0
 10
-23.885431
 20
-1.763521
 30
0.0
 10
-23.517757
 20
-1.401514
 30
0.0
 10
-23.151483
 20
-1.045293
 30
0.0
 10
-22.786428
 20
-0.694830
 30
0.0
 10
-22.422398
 20
-0.350039
 30
0.0
 10
-22.059203
 20
-0.010892
 30
0.0
 10
-21.696657
 20
0.322722
 30
0.0
 10
-21.334576
 20
0.650806
 30
0.0
 10
-20.972763
 20
0.973442
 30
0.0
 10
-20.611037
 20
1.290688
 30
0.0
 10
-20.249202
 20
1.602628
 30
0.0
 10
-19.887080
 20
1.909291
 30
0.0
 10
-19.524470
 20
2.210733
 30
0.0
 10
-19.161193
 20
2.507038
 30
0.0
 10
-18.797062
 20
2.798263
 30
0.0
 10
-18.431880
 20
3.084436
 30
0.0
 10
-18.065466
 20
3.365671
 30
0.0
 10
-17.697626
 20
3.641966
 30
0.0
 10
-17.328174
 20
3.913436
 30
0.0
 10
-16.956922
 20
4.180108
 30
0.0
 10
-16.583680
 20
4.442038
 30
0.0
 10
-16.208260
 20
4.699284
 30
0.0
 10
-15.830477
 20
4.951957
 30
0.0
 10
-15.450140
 20
5.200059
 30
0.0
 10
-15.067060
 20
5.443645
 30
0.0
 10
-14.681051
 20
5.682828
 30
0.0
 10
-14.291920
 20
5.917637
 30
0.0
 10
-13.899479
 20
6.148128
 30
0.0
 10
-13.503546
 20
6.374357
 30
0.0
 10
-13.103925
 20
6.596410
 30
0.0
 10
-12.700435
 20
6.814285
 30
0.0
 10
-12.292878
 20
7.028125
 30
0.0
 10
-11.881076
 20
7.237929
 30
0.0
 10
-11.464835
 20
7.443810
 30
0.0
 10
-11.043966
 20
7.645768
 30
0.0
 10
-10.618281
 20
7.843888
 30
0.0
 10
-10.187593
 20
8.038226
 30
0.0
 10
-9.751715
 20
8.228868
 30
0.0
 10
-9.310455
 20
8.415840
 30
0.0
 10
-8.863627
 20
8.599200
 30
0.0
 10
-8.411038
 20
8.779032
 30
0.0
 10
-7.952509
 20
8.955392
 30
0.0
 10
-7.487842
 20
9.128310
 30
0.0
 10
-7.016852
 20
9.297897
 30
0.0
 10
-6.539355
 20
9.464154
 30
0.0
 10
-6.055155
 20
9.627194
 30
0.0
 10
-5.564068
 20
9.787045
 30
0.0
 10
-5.065904
 20
9.943791
 30
0.0
 10
-4.560475
 20
10.097433
 30
0.0
 10
-4.047592
 20
10.248111
 30
0.0
 10
-3.527073
 20
10.395826
 30
0.0
 10
-2.998719
 20
10.540663
 30
0.0
 10
-2.462347
 20
10.682677
 30
0.0
 10
-1.917768
 20
10.821925
 30
0.0
 10
-1.364796
 20
10.958493
 30
0.0
 10
-0.803239
 20
11.092379
 30
0.0
 10
-0.797510
 20
11.211561
 30
0.0
 10
-0.793785
 20
11.330603
 30
0.0
 10
-0.791809
 20
11.449503
 30
0.0
 10
-0.792029
 20
11.568234
 30
0.0
 10
-0.794005
 20
11.686795
 30
0.0
 10
-0.798097
 20
11.805159
 30
0.0
 10
-0.804165
 20
11.923298
 30
0.0
 10
-0.812180
 20
12.041210
 30
0.0
 10
-0.822142
 20
12.158868
 30
0.0
 10
-0.834052
 20
12.276245
 30
0.0
 10
-0.847881
 20
12.393367
 30
0.0
 10
-0.863657
 20
12.510207
 30
0.0
 10
-0.881381
 20
12.626708
 30
0.0
 10
-0.901023
 20
12.742899
 30
0.0
 10
-0.922585
 20
12.858723
 30
0.0
 10
-0.946094
 20
12.974208
 30
0.0
 10
-0.971494
 20
13.089299
 30
0.0
 10
-0.998813
 20
13.203994
 30
0.0
 10
-1.028052
 20
13.318294
 30
0.0
 10
-1.059198
 20
13.432142
 30
0.0
 10
-1.092246
 20
13.545567
 30
0.0
 10
-1.127199
 20
13.658541
 30
0.0
 10
-1.164040
 20
13.771035
 30
0.0
 10
-1.202781
 20
13.883020
 30
0.0
 10
-1.243410
 20
13.994498
 30
0.0
 10
-1.285921
 20
14.105468
 30
0.0
 10
-1.330314
 20
14.215902
 30
0.0
 10
-1.376585
 20
14.325742
 30
0.0
 10
-1.424735
 20
14.435047
 30
0.0
 10
-1.474750
 20
14.543731
 30
0.0
 10
-1.526637
 20
14.651822
 30
0.0
 10
-1.580386
 20
14.759292
 30
0.0
 10
-1.635992
 20
14.866125
 30
0.0
 10
-1.693455
 20
14.972297
 30
0.0
 10
-1.752776
 20
15.077797
 30
0.0
 10
-1.813939
 20
15.182611
 30
0.0
 10
-1.876951
 20
15.286718
 30
0.0
 10
-1.941805
 20
15.390107
 30
0.0
 10
-2.008497
 20
15.492757
 30
0.0
 10
-2.077024
 20
15.594653
 30
0.0
 10
-2.147379
 20
15.695776
 30
0.0
 10
-2.219563
 20
15.796117
 30
0.0
 10
-2.293570
 20
15.895654
 30
0.0
 10
-2.369397
 20
15.994370
 30
0.0
 10
-2.447042
 20
16.092250
 30
0.0
 10
-2.526499
 20
16.189281
 30
0.0
 10
-2.607762
 20
16.285443
 30
0.0
 10
-2.690834
 20
16.380721
 30
0.0
 10
-2.775710
 20
16.475099
 30
0.0
 10
-2.862380
 20
16.568557
 30
0.0
 10
-2.950843
 20
16.661083
 30
0.0
 10
-3.041100
 20
16.752659
 30
0.0
 10
-3.133144
 20
16.843266
 30
0.0
 10
-3.226969
 20
16.932894
 30
0.0
 10
-3.322580
 20
17.021521
 30
0.0
 10
-3.419961
 20
17.109134
 30
0.0
 10
-3.519120
 20
17.195714
 30
0.0
 10
-3.620042
 20
17.281247
 30
0.0
 10
-3.722735
 20
17.365713
 30
0.0
 10
-3.827188
 20
17.449104
 30
0.0
 10
-3.933397
 20
17.531392
 30
0.0
 10
-4.041364
 20
17.612570
 30
0.0
 10
-4.151080
 20
17.692617
 30
0.0
 10
-4.262544
 20
17.771518
 30
0.0
 10
-4.249816
 20
18.001814
 30
0.0
 10
-4.211936
 20
18.214624
 30
0.0
 10
-4.149647
 20
18.410249
 30
0.0
 10
-4.063696
 20
18.588986
 30
0.0
 10
-3.954851
 20
18.751136
 30
0.0
 10
-3.823858
 20
18.897000
 30
0.0
 10
-3.671477
 20
19.026879
 30
0.0
 10
-3.498464
 20
19.141066
 30
0.0
 10
-3.305571
 20
19.239869
 30
0.0
 10
-3.093557
 20
19.323582
 30
0.0
 10
-2.863176
 20
19.392509
 30
0.0
 10
-2.615182
 20
19.446944
 30
0.0
 10
-2.350336
 20
19.487192
 30
0.0
 10
-2.069389
 20
19.513551
 30
0.0
 10
-1.773096
 20
19.526336
 30
0.0
 10
-1.462217
 20
19.525772
 30
0.0
 10
-1.137503
 20
19.512253
 30
0.0
 10
-0.799711
 20
19.486063
 30
0.0
 10
-0.449598
 20
19.447472
 30
0.0
 10
-0.087921
 20
19.396785
 30
0.0
 10
0.284572
 20
19.334309
 30
0.0
 10
0.667113
 20
19.260342
 30
0.0
 10
1.058959
 20
19.175181
 30
0.0
 10
1.459348
 20
19.079127
 30
0.0
 10
1.867526
 20
18.972481
 30
0.0
 10
2.282734
 20
18.855542
 30
0.0
 10
2.704222
 20
18.728609
 30
0.0
 10
3.131230
 20
18.591983
 30
0.0
 10
3.563004
 20
18.445964
 30
0.0
 10
3.998789
 20
18.290849
 30
0.0
 10
4.437828
 20
18.126940
 30
0.0
 10
4.879368
 20
17.954536
 30
0.0
 10
5.322652
 20
17.773936
 30
0.0
 10
5.766923
 20
17.585440
 30
0.0
 10
6.211426
 20
17.389352
 30
0.0
 10
6.655404
 20
17.185966
 30
0.0
 10
7.098106
 20
16.975581
 30
0.0
 10
7.538773
 20
16.758504
 30
0.0
 10
7.976650
 20
16.535026
 30
0.0
 10
8.410984
 20
16.305452
 30
0.0
 10
8.841012
 20
16.070079
 30
0.0
 10
9.265987
 20
15.829208
 30
0.0
 10
9.685150
 20
15.583138
 30
0.0
 10
10.097744
 20
15.332172
 30
0.0
 10
10.503013
 20
15.076609
 30
0.0
 10
10.900207
 20
14.816741
 30
0.0
 10
11.288561
 20
14.552875
 30
0.0
 10
11.667329
 20
14.285300
 30
0.0
 10
12.035750
 20
14.014338
 30
0.0
 10
12.393072
 20
13.740272
 30
0.0
 10
12.738534
 20
13.463412
 30
0.0
 10
13.071384
 20
13.184041
 30
0.0
 10
13.390868
 20
12.902496
 30
0.0
 10
13.696227
 20
12.619004
 30
0.0
 10
13.986704
 20
12.333931
 30
0.0
 10
14.261549
 20
12.047560
 30
0.0
 10
14.520003
 20
11.760201
 30
0.0
 10
14.761311
 20
11.472109
 30
0.0
 10
14.984716
 20
11.183621
 30
0.0
 10
15.189468
 20
10.895049
 30
0.0
 10
15.374803
 20
10.606646
 30
0.0
 10
15.539971
 20
10.318751
 30
0.0
 10
15.684215
 20
10.031647
 30
0.0
 10
15.806778
 20
9.745643
 30
0.0
 10
16.297035
 20
9.601088
 30
0.0
 10
16.778399
 20
9.451849
 30
0.0
 10
17.250915
 20
9.298038
 30
0.0
 10
17.714648
 20
9.139740
 30
0.0
 10
18.169647
 20
8.977039
 30
0.0
 10
18.615967
 20
8.810048
 30
0.0
 10
19.053666
 20
8.638824
 30
0.0
 10
19.482790
 20
8.463507
 30
0.0
 10
19.903403
 20
8.284155
 30
0.0
 10
20.315558
 20
8.100880
 30
0.0
 10
20.719302
 20
7.913738
 30
0.0
 10
21.114698
 20
7.722871
 30
0.0
 10
21.501797
 20
7.528336
 30
0.0
 10
21.880652
 20
7.330272
 30
0.0
 10
22.251317
 20
7.128709
 30
0.0
 10
22.613851
 20
6.923759
 30
0.0
 10
22.968308
 20
6.715564
 30
0.0
 10
23.314736
 20
6.504151
 30
0.0
 10
23.653197
 20
6.289634
 30
0.0
 10
23.983744
 20
6.072125
 30
0.0
 10
24.306425
 20
5.851710
 30
0.0
 10
24.621303
 20
5.628444
 30
0.0
 10
24.928429
 20
5.402468
 30
0.0
 10
25.227858
 20
5.173868
 30
0.0
 10
25.519642
 20
4.942700
 30
0.0
 10
25.803837
 20
4.709105
 30
0.0
 10
26.080500
 20
4.473139
 30
0.0
 10
26.349683
 20
4.234915
 30
0.0
 10
26.611439
 20
3.994518
 30
0.0
 10
26.865828
 20
3.752033
 30
0.0
 10
27.112897
 20
3.507572
 30
0.0
 10
27.352704
 20
3.261220
 30
0.0
 10
27.585306
 20
3.013062
 30
0.0
 10
27.810756
 20
2.763183
 30
0.0
 10
28.029106
 20
2.511694
 30
0.0
 10
28.240414
 20
2.258682
 30
0.0
 10
28.444732
 20
2.004231
 30
0.0
 10
28.642115
 20
1.748453
 30
0.0
 10
28.832618
 20
1.491433
 30
0.0
 10
29.016294
 20
1.233256
 30
0.0
 10
29.193202
 20
0.974007
 30
0.0
 10
29.363391
 20
0.713798
 30
0.0
 10
29.526916
 20
0.452714
 30
0.0
 10
29.683837
 20
0.190840
 30
0.0
 10
29.834205
 20
-0.071711
 30
0.0
 10
29.978071
 20
-0.334884
 30
0.0
 10
30.115493
 20
-0.598536
 30
0.0
 10
30.246529
 20
-0.862611
 30
0.0
 10
30.371223
 20
-1.126997
 30
0.0
 10
30.489641
 20
-1.391608
 30
0.0
 10
30.601833
 20
-1.656361
 30
0.0
 10
30.707849
 20
-1.921170
 30
0.0
 10
30.807753
 20
-2.185923
 30
0.0
 10
30.901592
 20
-2.450506
 30
0.0
 10
30.989422
 20
-2.714864
 30
0.0
 10
31.071298
 20
-2.978911
 30
0.0
 10
31.147275
 20
-3.242534
 30
0.0
 10
31.217404
 20
-3.505622
 30
0.0
 10
31.281745
 20
-3.768117
 30
0.0
 10
31.340354
 20
-4.029906
 30
0.0
 10
31.393277
 20
-4.290934
 30
0.0
 10
31.440574
 20
-4.551030
 30
0.0
 10
31.482298
 20
-4.810194
 30
0.0
 10
31.518507
 20
-5.068258
 30
0.0
 10
31.484587
 20
-5.287122
 30
0.0
 10
31.453164
 20
-5.501300
 30
0.0
 10
31.424205
 20
-5.710935
 30
0.0
 10
31.397677
 20
-5.916026
 30
0.0
 10
31.373547
 20
-6.116686
 30
0.0
 10
31.351787
 20
-6.312971
 30
0.0
 10
31.332370
 20
-6.504995
 30
0.0
 10
31.315239
 20
-6.692786
 30
0.0
 10
31.300366
 20
-6.876428
 30
0.0
 10
31.287751
 20
-7.056034
 30
0.0
 10
31.277309
 20
-7.231633
 30
0.0
 10
31.269040
 20
-7.403337
 30
0.0
 10
31.262915
 20
-7.571174
 30
0.0
 10
31.258880
 20
-7.735258
 30
0.0
 10
31.256904
 20
-7.895673
 30
0.0
 10
31.256963
 20
-8.052448
 30
0.0
 10
31.258939
 20
-8.205723
 30
0.0
 10
31.262947
 20
-8.355498
 30
0.0
 10
31.268901
 20
-8.501887
 30
0.0
 10
31.276775
 20
-8.644973
 30
0.0
 10
31.286512
 20
-8.784814
 30
0.0
 10
31.298055
 20
-8.921523
 30
0.0
 10
31.311404
 20
-9.055099
 30
0.0
 10
31.326531
 20
-9.185683
 30
0.0
 10
31.343380
 20
-9.313332
 30
0.0
 10
31.361922
 20
-9.438102
 30
0.0
 10
31.382129
 20
-9.560107
 30
0.0
 10
31.403973
 20
-9.679374
 30
0.0
 10
31.427426
 20
-9.796017
 30
0.0
 10
31.452431
 20
-9.910091
 30
0.0
 10
31.478959
 20
-10.021653
 30
0.0
 10
31.507012
 20
-10.130845
 30
0.0
 10
31.536521
 20
-10.237666
 30
0.0
 10
31.567461
 20
-10.342230
 30
0.0
 10
31.599801
 20
-10.444620
 30
0.0
 10
31.633507
 20
-10.544865
 30
0.0
 10
31.668545
 20
-10.643107
 30
0.0
 10
31.704884
 20
-10.739344
 30
0.0
 10
31.742487
 20
-10.833720
 30
0.0
 10
31.781324
 20
-10.926288
 30
0.0
 10
31.821360
 20
-11.017108
 30
0.0
 10
31.862564
 20
-11.106262
 30
0.0
 10
31.904900
 20
-11.193807
 30
0.0
 10
31.948334
 20
-11.279856
 30
0.0
 10
31.992835
 20
-11.364467
 30
0.0
 10
32.038369
 20
-11.447722
 30
0.0
 10
32.084905
 20
-11.529680
 30
0.0
 10
32.132405
 20
-11.610423
 30
0.0
 10
32.180840
 20
-11.690010
 30
0.0
 10
32.230173
 20
-11.768552
 30
0.0
 10
32.280375
 20
-11.846107
 30
0.0
 10
32.331406
 20
-11.922730
 30
0.0
 10
32.383242
 20
-11.998535
 30
0.0
 10
32.435842
 20
-12.073550
 30
0.0
 10
32.489174
 20
-12.147916
 30
0.0
 10
32.543208
 20
-12.221632
 30
0.0
 10
32.597908
 20
-12.294812
 30
0.0
 10
32.653241
 20
-12.367541
 30
0.0
 10
32.709177
 20
-12.439846
 30
0.0
 10
32.765675
 20
-12.511869
 30
0.0
 10
32.822710
 20
-12.583638
 30
0.0
 10
32.880244
 20
-12.655266
 30
0.0
 10
32.938243
 20
-12.726782
 30
0.0
 10
32.996680
 20
-12.798268
 30
0.0
 10
33.041181
 20
-12.895692
 30
0.0
 10
33.082258
 20
-12.992381
 30
0.0
 10
33.119977
 20
-13.088280
 30
0.0
 10
33.154403
 20
-13.183361
 30
0.0
 10
33.185600
 20
-13.277595
 30
0.0
 10
33.213624
 20
-13.370897
 30
0.0
 10
33.238544
 20
-13.463297
 30
0.0
 10
33.260445
 20
-13.554680
 30
0.0
 10
33.279382
 20
-13.645048
 30
0.0
 10
33.295384
 20
-13.734343
 30
0.0
 10
33.308536
 20
-13.822538
 30
0.0
 10
33.318921
 20
-13.909603
 30
0.0
 10
33.326598
 20
-13.995455
 30
0.0
 10
33.331650
 20
-14.080094
 30
0.0
 10
33.334190
 20
-14.163462
 30
0.0
 10
33.334119
 20
-14.245532
 30
0.0
 10
33.331579
 20
-14.326220
 30
0.0
 10
33.326668
 20
-14.405524
 30
0.0
 10
33.319443
 20
-14.483417
 30
0.0
 10
33.309933
 20
-14.559815
 30
0.0
 10
33.298249
 20
-14.634688
 30
0.0
 10
33.284420
 20
-14.708038
 30
0.0
 10
33.268502
 20
-14.779779
 30
0.0
 10
33.250609
 20
-14.849883
 30
0.0
 10
33.230769
 20
-14.918294
 30
0.0
 10
33.209038
 20
-14.984983
 30
0.0
 10
33.185501
 20
-15.049950
 30
0.0
 10
33.160214
 20
-15.113083
 30
0.0
 10
33.133233
 20
-15.174382
 30
0.0
 10
33.104653
 20
-15.233790
 30
0.0
 10
33.074517
 20
-15.291278
 30
0.0
 10
33.042891
 20
-15.346820
 30
0.0
 10
33.009840
 20
-15.400329
 30
0.0
 10
32.975434
 20
-15.451806
 30
0.0
 10
32.939728
 20
-15.501195
 30
0.0
 10
32.902793
 20
-15.548468
 30
0.0
 10
32.864693
 20
-15.593567
 30
0.0
 10
32.825492
 20
-15.636436
 30
0.0
 10
32.785253
 20
-15.677076
 30
0.0
 10
32.744043
 20
-15.715430
 30
0.0
 10
32.701924
 20
-15.751442
 30
0.0
 10
32.658959
 20
-15.785083
 30
0.0
 10
32.615217
 20
-15.816296
 30
0.0
 10
32.570759
 20
-15.845055
 30
0.0
 10
32.525651
 20
-15.871302
 30
0.0
 10
32.479956
 20
-15.895008
 30
0.0
 10
32.433743
 20
-15.916175
 30
0.0
 10
32.387072
 20
-15.934802
 30
0.0
 10
32.340008
 20
-15.950606
 30
0.0
 10
32.292615
 20
-15.963870
 30
0.0
 10
32.244961
 20
-15.974313
 30
0.0
 10
32.197108
 20
-15.981933
 30
0.0
 10
32.149119
 20
-15.986730
 30
0.0
 10
32.101062
 20
-15.989553
 30
0.0
 10
32.052997
 20
-15.989553
 30
0.0
 10
32.004993
 20
-15.985602
 30
0.0
 10
31.957112
 20
-15.978828
 30
0.0
 10
31.909419
 20
-15.968950
 30
0.0
 10
31.861977
 20
-15.955968
 30
0.0
 10
31.814855
 20
-15.939882
 30
0.0
 10
31.768113
 20
-15.920690
 30
0.0
 10
31.721817
 20
-15.898395
 30
0.0
 10
31.676030
 20
-15.872713
 30
0.0
 10
31.630818
 20
-15.843813
 30
0.0
 10
31.631664
 20
-16.031068
 30
0.0
 10
31.623988
 20
-16.208331
 30
0.0
 10
31.607788
 20
-16.375774
 30
0.0
 10
31.583263
 20
-16.533592
 30
0.0
 10
31.550585
 20
-16.681928
 30
0.0
 10
31.509953
 20
-16.821008
 30
0.0
 10
31.461558
 20
-16.950943
 30
0.0
 10
31.405587
 20
-17.071960
 30
0.0
 10
31.342226
 20
-17.184228
 30
0.0
 10
31.271662
 20
-17.287916
 30
0.0
 10
31.194087
 20
-17.383194
 30
0.0
 10
31.109691
 20
-17.470260
 30
0.0
 10
31.018652
 20
-17.549282
 30
0.0
 10
30.921167
 20
-17.620430
 30
0.0
 10
30.817422
 20
-17.683874
 30
0.0
 10
30.707604
 20
-17.739810
 30
0.0
 10
30.591901
 20
-17.788409
 30
0.0
 10
30.470498
 20
-17.829867
 30
0.0
 10
30.343591
 20
-17.864327
 30
0.0
 10
30.211358
 20
-17.891984
 30
0.0
 10
30.073995
 20
-17.912869
 30
0.0
 10
29.931687
 20
-17.927544
 30
0.0
 10
29.784621
 20
-17.935729
 30
0.0
 10
29.632989
 20
-17.938551
 30
0.0
 10
29.476974
 20
-17.934882
 30
0.0
 10
29.316765
 20
-17.925569
 30
0.0
 10
29.152551
 20
-17.910611
 30
0.0
 10
28.984521
 20
-17.890291
 30
0.0
 10
28.812865
 20
-17.864609
 30
0.0
 10
28.637763
 20
-17.833931
 30
0.0
 10
28.459407
 20
-17.798400
 30
0.0
 10
28.277992
 20
-17.758183
 30
0.0
 10
28.093698
 20
-17.713451
 30
0.0
 10
27.906712
 20
-17.664400
 30
0.0
 10
27.717228
 20
-17.611202
 30
0.0
 10
27.525429
 20
-17.554023
 30
0.0
 10
27.331506
 20
-17.493063
 30
0.0
 10
27.135644
 20
-17.428491
 30
0.0
 10
26.938035
 20
-17.360447
 30
0.0
 10
26.738865
 20
-17.289158
 30
0.0
 10
26.538320
 20
-17.214764
 30
0.0
 10
26.336591
 20
-17.137492
 30
0.0
 10
26.133865
 20
-17.057453
 30
0.0
 10
25.930329
 20
-16.974875
 30
0.0
 10
25.726172
 20
-16.889926
 30
0.0
 10
25.521581
 20
-16.802748
 30
0.0
 10
25.316747
 20
-16.713566
 30
0.0
 10
25.111854
 20
-16.622521
 30
0.0
 10
24.907096
 20
-16.529811
 30
0.0
 10
24.702651
 20
-16.435605
 30
0.0
 10
24.498715
 20
-16.340101
 30
0.0
 10
24.295475
 20
-16.243440
 30
0.0
 10
24.093113
 20
-16.145819
 30
0.0
 10
23.891827
 20
-16.047408
 30
0.0
 10
23.691799
 20
-15.948376
 30
0.0
 10
23.493216
 20
-15.848950
 30
0.0
 10
23.296267
 20
-15.749240
 30
0.0
 10
23.101144
 20
-15.649475
 30
0.0
 10
22.908028
 20
-15.549794
 30
0.0
 10
22.717113
 20
-15.450395
 30
0.0
 10
22.528586
 20
-15.351448
 30
0.0
 10
22.342630
 20
-15.253122
 30
0.0
 10
22.159439
 20
-15.155614
 30
0.0
 10
21.979195
 20
-15.059094
 30
0.0
 10
21.796078
 20
-15.019301
 30
0.0
 10
21.614827
 20
-14.978492
 30
0.0
 10
21.435398
 20
-14.936666
 30
0.0
 10
21.257739
 20
-14.893825
 30
0.0
 10
21.081799
 20
-14.850024
 30
0.0
 10
20.907536
 20
-14.805235
 30
0.0
 10
20.734895
 20
-14.759515
 30
0.0
 10
20.563828
 20
-14.712864
 30
0.0
 10
20.394286
 20
-14.665310
 30
0.0
 10
20.226226
 20
-14.616824
 30
0.0
 10
20.059588
 20
-14.567463
 30
0.0
 10
19.894330
 20
-14.517256
 30
0.0
 10
19.730401
 20
-14.466202
 30
0.0
 10
19.567753
 20
-14.414301
 30
0.0
 10
19.406339
 20
-14.361582
 30
0.0
 10
19.246105
 20
-14.308044
 30
0.0
 10
19.087005
 20
-14.253745
 30
0.0
 10
18.928988
 20
-14.198683
 30
0.0
 10
18.772008
 20
-14.142860
 30
0.0
 10
18.616012
 20
-14.086302
 30
0.0
 10
18.460957
 20
-14.029011
 30
0.0
 10
18.306787
 20
-13.971043
 30
0.0
 10
18.153456
 20
-13.912369
 30
0.0
 10
18.000915
 20
-13.853018
 30
0.0
 10
17.849119
 20
-13.793017
 30
0.0
 10
17.698011
 20
-13.732396
 30
0.0
 10
17.547547
 20
-13.671154
 30
0.0
 10
17.397676
 20
-13.609290
 30
0.0
 10
17.248352
 20
-13.546835
 30
0.0
 10
17.099525
 20
-13.483843
 30
0.0
 10
16.951141
 20
-13.420258
 30
0.0
 10
16.803158
 20
-13.356137
 30
0.0
 10
16.655522
 20
-13.291508
 30
0.0
 10
16.508185
 20
-13.226371
 30
0.0
 10
16.361099
 20
-13.160726
 30
0.0
 10
16.214217
 20
-13.094630
 30
0.0
 10
16.067484
 20
-13.028054
 30
0.0
 10
15.920858
 20
-12.961054
 30
0.0
 10
15.774286
 20
-12.893631
 30
0.0
 10
15.627717
 20
-12.825785
 30
0.0
 10
15.481105
 20
-12.757544
 30
0.0
 10
15.334403
 20
-12.688936
 30
0.0
 10
15.187557
 20
-12.619989
 30
0.0
 10
15.040519
 20
-12.550675
 30
0.0
 10
14.893245
 20
-12.481022
 30
0.0
 10
14.745679
 20
-12.411088
 30
0.0
 10
14.597775
 20
-12.340843
 30
0.0
 10
14.449487
 20
-12.270315
 30
0.0
 10
14.300761
 20
-12.199534
 30
0.0
 10
14.151550
 20
-12.128499
 30
0.0
 10
14.001806
 20
-12.057266
 30
0.0
 10
13.851480
 20
-11.985779
 30
0.0
 10
13.700520
 20
-11.914123
 30
0.0
 10
13.548879
 20
-11.842269
 30
0.0
 10
13.396507
 20
-11.770274
 30
0.0
 10
13.243359
 20
-11.698110
 30
0.0
 10
13.089379
 20
-11.625833
 30
0.0
 10
12.934524
 20
-11.553443
 30
0.0
 10
12.778743
 20
-11.480940
 30
0.0
 10
12.621985
 20
-11.408352
 30
0.0
 10
12.464203
 20
-11.335708
 30
0.0
 10
12.305346
 20
-11.263008
 30
0.0
 10
12.145371
 20
-11.190279
 30
0.0
 10
11.984219
 20
-11.117550
 30
0.0
 10
11.636180
 20
-11.191577
 30
0.0
 10
11.284839
 20
-11.265209
 30
0.0
 10
10.930622
 20
-11.338248
 30
0.0
 10
10.573955
 20
-11.410554
 30
0.0
 10
10.215256
 20
-11.481871
 30
0.0
 10
9.854949
 20
-11.552116
 30
0.0
 10
9.493456
 20
-11.621035
 30
0.0
 10
9.131195
 20
-11.688486
 30
0.0
 10
8.768599
 20
-11.754300
 30
0.0
 10
8.406082
 20
-11.818280
 30
0.0
 10
8.044067
 20
-11.880256
 30
0.0
 10
7.682975
 20
-11.940031
 30
0.0
 10
7.323235
 20
-11.997491
 30
0.0
 10
6.965264
 20
-12.052383
 30
0.0
 10
6.609483
 20
-12.104566
 30
0.0
 10
6.256322
 20
-12.153870
 30
0.0
 10
5.906191
 20
-12.200127
 30
0.0
 10
5.559523
 20
-12.243109
 30
0.0
 10
5.216736
 20
-12.282677
 30
0.0
 10
4.878253
 20
-12.318660
 30
0.0
 10
4.544494
 20
-12.350862
 30
0.0
 10
4.215886
 20
-12.379112
 30
0.0
 10
3.892849
 20
-12.403383
 30
0.0
 10
3.575803
 20
-12.423139
 30
0.0
 10
3.265172
 20
-12.438379
 30
0.0
 10
2.961380
 20
-12.449103
 30
0.0
 10
2.664846
 20
-12.455030
 30
0.0
 10
2.375997
 20
-12.455030
 30
0.0
 10
2.095251
 20
-12.450796
 30
0.0
 10
1.823031
 20
-12.441201
 30
0.0
 10
1.559760
 20
-12.425961
 30
0.0
 10
1.305858
 20
-12.405076
 30
0.0
 10
1.061756
 20
-12.378265
 30
0.0
 10
0.827864
 20
-12.345302
 30
0.0
 10
0.604615
 20
-12.306045
 30
0.0
 10
0.392424
 20
-12.260381
 30
0.0
 10
0.191713
 20
-12.208114
 30
0.0
 10
0.002912
 20
-12.149073
 30
0.0
 10
-0.173565
 20
-12.083033
 30
0.0
 10
-0.337293
 20
-12.009881
 30
0.0
 10
-0.487844
 20
-11.929419
 30
0.0
 10
-0.624807
 20
-11.841450
 30
0.0
 10
-0.747748
 20
-11.745805
 30
0.0
 10
-0.856254
 20
-11.642314
 30
0.0
 10
-0.949899
 20
-11.530808
 30
0.0
 10
-1.028258
 20
-11.411118
 30
0.0
 10
-1.090911
 20
-11.283017
 30
0.0
 10
-1.137438
 20
-11.146365
 30
0.0
 10
-1.167413
 20
-11.000993
 30
0.0
 10
-1.180423
 20
-10.846702
 30
0.0
 10
-1.176021
 20
-10.683323
 30
0.0
 10
-1.153838
 20
-10.510688
 30
0.0
 10
-1.113387
 20
-10.328626
 30
0.0
 10
-1.054278
 20
-10.136913
 30
0.0
 10
-0.976083
 20
-9.935434
 30
0.0
 10
-0.878383
 20
-9.723965
 30
0.0
 10
-0.760753
 20
-9.502336
 30
0.0
 10
-0.622778
 20
-9.270406
 30
0.0
 10
-0.464022
 20
-9.027949
 30
0.0
 10
-0.284071
 20
-8.774824
 30
0.0
 10
-0.082506
 20
-8.510833
 30
0.0
 10
0.141102
 20
-8.235836
 30
0.0
 10
0.387169
 20
-7.949578
 30
0.0
 10
0.656124
 20
-7.651974
 30
0.0
 10
-0.107386
 20
-7.568239
 30
0.0
 10
-0.853720
 20
-7.486282
 30
0.0
 10
-1.583377
 20
-7.406356
 30
0.0
 10
-2.296855
 20
-7.328774
 30
0.0
 10
-2.994644
 20
-7.253872
 30
0.0
 10
-3.677246
 20
-7.181905
 30
0.0
 10
-4.345153
 20
-7.113184
 30
0.0
 10
-4.998859
 20
-7.048019
 30
0.0
 10
-5.638868
 20
-6.986720
 30
0.0
 10
-6.265664
 20
-6.929542
 30
0.0
 10
-6.879754
 20
-6.876851
 30
0.0
 10
-7.481627
 20
-6.828873
 30
0.0
 10
-8.071782
 20
-6.785976
 30
0.0
 10
-8.650716
 20
-6.748412
 30
0.0
 10
-9.218919
 20
-6.716492
 30
0.0
 10
-9.776895
 20
-6.690528
 30
0.0
 10
-10.325134
 20
-6.670772
 30
0.0
 10
-10.864131
 20
-6.657508
 30
0.0
 10
-11.394387
 20
-6.651299
 30
0.0
 10
-11.916394
 20
-6.651299
 30
0.0
 10
-12.430648
 20
-6.659484
 30
0.0
 10
-12.937649
 20
-6.675570
 30
0.0
 10
-13.437887
 20
-6.699559
 30
0.0
 10
-13.931858
 20
-6.731958
 30
0.0
 10
-14.420063
 20
-6.773022
 30
0.0
 10
-14.902996
 20
-6.823031
 30
0.0
 10
-15.381151
 20
-6.882270
 30
0.0
 10
-15.855028
 20
-6.951076
 30
0.0
 10
-16.325117
 20
-7.029703
 30
0.0
 10
-16.791918
 20
-7.118490
 30
0.0
 10
-17.255922
 20
-7.217691
 30
0.0
 10
-17.717632
 20
-7.327673
 30
0.0
 10
-18.177539
 20
-7.448690
 30
0.0
 10
-18.636139
 20
-7.581024
 30
0.0
 10
-19.093931
 20
-7.725042
 30
0.0
 10
-19.551411
 20
-7.880970
 30
0.0
 10
-20.009068
 20
-8.049146
 30
0.0
 10
-20.467402
 20
-8.229881
 30
0.0
 10
-20.926912
 20
-8.423429
 30
0.0
 10
-21.388090
 20
-8.630128
 30
0.0
 10
-21.851434
 20
-8.850290
 30
0.0
 10
-22.317439
 20
-9.084168
 30
0.0
 10
-22.786600
 20
-9.332100
 30
0.0
 10
-23.259414
 20
-9.594369
 30
0.0
 10
-23.736375
 20
-9.871257
 30
0.0
 10
-24.217982
 20
-10.163103
 30
0.0
 10
-24.704729
 20
-10.470189
 30
0.0
 10
-25.197112
 20
-10.792826
 30
0.0
 10
-25.695626
 20
-11.131266
 30
0.0
 10
-26.200769
 20
-11.485879
 30
0.0
 10
-26.713035
 20
-11.856916
 30
0.0
 10
-27.232921
 20
-12.244690
 30
0.0
 10
-27.760922
 20
-12.649481
 30
0.0
 10
-28.297533
 20
-13.071629
 30
0.0
 10
-28.843252
 20
-13.511416
 30
0.0
 10
-29.398575
 20
-13.969152
 30
0.0
 10
-29.963996
 20
-14.445092
 30
0.0
 10
-30.540009
 20
-14.939601
 30
0.0
 10
-31.127116
 20
-15.452907
 30
0.0
 10
-31.725808
 20
-15.985376
 30
0.0
 10
-32.336582
 20
-16.537261
 30
0.0
 10
-32.959935
 20
-17.108902
 30
0.0
 10
-33.596360
 20
-17.700553
 30
0.0
 10
-34.246329
 20
-18.312580
 30
0.0
  0
ENDSEC
  0
SECTION
  2
OBJECTS
  0
DICTIONARY
  5
C
330
0
100
AcDbDictionary
  3
ACAD_GROUP
350
D
  3
ACAD_MLINESTYLE
350
17
  0
DICTIONARY
  5
D
330
C
100
AcDbDictionary
  0
DICTIONARY
  5
1A
330
C
100
AcDbDictionary
  0
DICTIONARY
  5
17
330
C
100
AcDbDictionary
  3
STANDARD
350
18
  0
DICTIONARY
  5
19
330
C
100
AcDbDictionary
  0
ENDSEC
  0
EOF
